<svg width="464" height="464" viewBox="0 0 464 464" fill="none" xmlns="http://www.w3.org/2000/svg">
<path fill-rule="evenodd" clip-rule="evenodd" d="M231.547 0C235.926 -1.91432e-07 239.477 3.55024 239.477 7.92969V136.391C239.477 140.77 235.926 144.32 231.547 144.32C227.167 144.32 223.617 140.77 223.617 136.391V7.92969C223.617 3.55024 227.167 1.91432e-07 231.547 0Z" fill="#002DCB"/>
<path fill-rule="evenodd" clip-rule="evenodd" d="M231.547 318.773C235.926 318.773 239.477 322.324 239.477 326.703V455.164C239.477 459.544 235.926 463.094 231.547 463.094C227.167 463.094 223.617 459.544 223.617 455.164V326.703C223.617 322.324 227.167 318.773 231.547 318.773Z" fill="#002DCB"/>
<path fill-rule="evenodd" clip-rule="evenodd" d="M463.094 231.547C463.094 235.926 459.544 239.477 455.164 239.477H326.703C322.324 239.477 318.773 235.926 318.773 231.547C318.773 227.167 322.324 223.617 326.703 223.617H455.164C459.544 223.617 463.094 227.167 463.094 231.547Z" fill="#002DCB"/>
<path fill-rule="evenodd" clip-rule="evenodd" d="M144.32 231.547C144.32 235.926 140.77 239.477 136.391 239.477H7.92969C3.55023 239.477 0 235.926 0 231.547C0 227.167 3.55023 223.617 7.92969 223.617H136.391C140.77 223.617 144.32 227.167 144.32 231.547Z" fill="#002DCB"/>
<path fill-rule="evenodd" clip-rule="evenodd" d="M395.275 67.8185C398.372 70.9152 398.372 75.9361 395.275 79.0328L304.44 169.868C301.343 172.965 296.322 172.965 293.225 169.868C290.129 166.772 290.129 161.751 293.225 158.654L384.061 67.8185C387.158 64.7218 392.179 64.7218 395.275 67.8185Z" fill="#002DCB"/>
<path fill-rule="evenodd" clip-rule="evenodd" d="M169.868 293.225C172.965 296.322 172.965 301.343 169.868 304.44L79.0328 395.275C75.936 398.372 70.9152 398.372 67.8185 395.275C64.7218 392.179 64.7218 387.158 67.8185 384.061L158.654 293.225C161.751 290.129 166.772 290.129 169.868 293.225Z" fill="#002DCB"/>
<path fill-rule="evenodd" clip-rule="evenodd" d="M395.275 395.275C392.178 398.372 387.158 398.372 384.061 395.275L293.225 304.44C290.129 301.343 290.129 296.322 293.225 293.225C296.322 290.129 301.343 290.129 304.44 293.225L395.275 384.061C398.372 387.158 398.372 392.179 395.275 395.275Z" fill="#002DCB"/>
<path fill-rule="evenodd" clip-rule="evenodd" d="M169.868 169.868C166.772 172.965 161.751 172.965 158.654 169.868L67.8185 79.0328C64.7218 75.936 64.7218 70.9152 67.8185 67.8185C70.9153 64.7218 75.9361 64.7218 79.0328 67.8185L169.868 158.654C172.965 161.751 172.965 166.772 169.868 169.868Z" fill="#002DCB"/>
<path fill-rule="evenodd" clip-rule="evenodd" d="M291.476 7.88976C295.706 9.02325 298.216 13.3714 297.083 17.6016L263.835 141.685C262.701 145.916 258.353 148.426 254.123 147.292C249.893 146.159 247.382 141.811 248.516 137.581L281.764 13.4969C282.897 9.26668 287.245 6.75628 291.476 7.88976Z" fill="#002DCB"/>
<path fill-rule="evenodd" clip-rule="evenodd" d="M208.971 315.801C213.201 316.935 215.712 321.283 214.578 325.513L181.33 449.597C180.197 453.827 175.848 456.338 171.618 455.204C167.388 454.071 164.878 449.722 166.011 445.492L199.259 321.408C200.393 317.178 204.741 314.668 208.971 315.801Z" fill="#002DCB"/>
<path fill-rule="evenodd" clip-rule="evenodd" d="M455.204 291.476C454.071 295.706 449.722 298.216 445.492 297.083L321.408 263.835C317.178 262.701 314.668 258.353 315.801 254.123C316.935 249.893 321.283 247.382 325.513 248.516L449.597 281.764C453.827 282.897 456.338 287.245 455.204 291.476Z" fill="#002DCB"/>
<path fill-rule="evenodd" clip-rule="evenodd" d="M147.292 208.971C146.159 213.201 141.811 215.712 137.581 214.578L13.4969 181.33C9.26663 180.196 6.75624 175.848 7.88973 171.618C9.02321 167.388 13.3713 164.878 17.6016 166.011L141.685 199.259C145.916 200.393 148.426 204.741 147.292 208.971Z" fill="#002DCB"/>
<path fill-rule="evenodd" clip-rule="evenodd" d="M432.072 115.773C434.262 119.566 432.963 124.416 429.17 126.606L317.92 190.836C314.127 193.026 309.277 191.726 307.087 187.934C304.898 184.141 306.197 179.291 309.99 177.101L421.24 112.871C425.033 110.681 429.883 111.981 432.072 115.773Z" fill="#002DCB"/>
<path fill-rule="evenodd" clip-rule="evenodd" d="M156.007 275.16C158.196 278.953 156.897 283.803 153.104 285.992L41.8536 350.223C38.0609 352.413 33.2112 351.113 31.0215 347.32C28.8318 343.528 30.1312 338.678 33.9239 336.488L145.174 272.258C148.967 270.068 153.817 271.367 156.007 275.16Z" fill="#002DCB"/>
<path fill-rule="evenodd" clip-rule="evenodd" d="M347.32 432.072C343.528 434.262 338.678 432.963 336.488 429.17L272.258 317.92C270.068 314.127 271.367 309.277 275.16 307.087C278.953 304.898 283.803 306.197 285.992 309.99L350.223 421.24C352.412 425.033 351.113 429.883 347.32 432.072Z" fill="#002DCB"/>
<path fill-rule="evenodd" clip-rule="evenodd" d="M187.934 156.006C184.141 158.196 179.291 156.897 177.101 153.104L112.871 41.8535C110.681 38.0608 111.981 33.2111 115.773 31.0214C119.566 28.8317 124.416 30.1311 126.606 33.9239L190.836 145.174C193.026 148.967 191.726 153.817 187.934 156.006Z" fill="#002DCB"/>
<path fill-rule="evenodd" clip-rule="evenodd" d="M347.32 31.0214C351.113 33.2111 352.413 38.0608 350.223 41.8535L285.992 153.104C283.803 156.897 278.953 158.196 275.16 156.006C271.367 153.817 270.068 148.967 272.258 145.174L336.488 33.9239C338.678 30.1312 343.528 28.8317 347.32 31.0214Z" fill="#002DCB"/>
<path fill-rule="evenodd" clip-rule="evenodd" d="M187.934 307.087C191.726 309.277 193.026 314.127 190.836 317.919L126.606 429.17C124.416 432.963 119.566 434.262 115.773 432.072C111.981 429.883 110.681 425.033 112.871 421.24L177.101 309.99C179.291 306.197 184.141 304.898 187.934 307.087Z" fill="#002DCB"/>
<path fill-rule="evenodd" clip-rule="evenodd" d="M432.072 347.32C429.883 351.113 425.033 352.413 421.24 350.223L309.99 285.992C306.197 283.803 304.898 278.953 307.087 275.16C309.277 271.368 314.127 270.068 317.92 272.258L429.17 336.488C432.963 338.678 434.262 343.528 432.072 347.32Z" fill="#002DCB"/>
<path fill-rule="evenodd" clip-rule="evenodd" d="M156.006 187.934C153.817 191.726 148.967 193.026 145.174 190.836L33.9239 126.606C30.1311 124.416 28.8317 119.566 31.0214 115.773C33.2111 111.981 38.0608 110.681 41.8535 112.871L153.104 177.101C156.897 179.291 158.196 184.141 156.006 187.934Z" fill="#002DCB"/>
<path fill-rule="evenodd" clip-rule="evenodd" d="M455.204 171.618C456.338 175.848 453.827 180.197 449.597 181.33L325.513 214.578C321.283 215.712 316.935 213.201 315.801 208.971C314.668 204.741 317.178 200.393 321.408 199.259L445.492 166.011C449.722 164.878 454.071 167.388 455.204 171.618Z" fill="#002DCB"/>
<path fill-rule="evenodd" clip-rule="evenodd" d="M147.293 254.123C148.426 258.353 145.916 262.701 141.685 263.835L17.6017 297.083C13.3714 298.216 9.02332 295.706 7.88983 291.476C6.75635 287.245 9.26674 282.897 13.497 281.764L137.581 248.516C141.811 247.382 146.159 249.893 147.293 254.123Z" fill="#002DCB"/>
<path fill-rule="evenodd" clip-rule="evenodd" d="M291.476 455.204C287.245 456.338 282.897 453.827 281.764 449.597L248.516 325.513C247.382 321.283 249.893 316.935 254.123 315.801C258.353 314.668 262.701 317.178 263.835 321.408L297.083 445.492C298.216 449.722 295.706 454.071 291.476 455.204Z" fill="#002DCB"/>
<path fill-rule="evenodd" clip-rule="evenodd" d="M208.971 147.292C204.741 148.426 200.393 145.916 199.259 141.685L166.011 17.6016C164.878 13.3714 167.388 9.02322 171.618 7.88973C175.848 6.75625 180.197 9.26664 181.33 13.4969L214.578 137.581C215.712 141.811 213.201 146.159 208.971 147.292Z" fill="#002DCB"/>
</svg>
